<svg width="103" height="103" viewBox="0 0 103 103" fill="none" xmlns="http://www.w3.org/2000/svg">
<path d="M52.2634 6.93274C46.6011 4.70702 40.4942 3.8697 34.4465 4.49065C28.3988 5.1116 22.5858 7.17277 17.4865 10.5024C12.3873 13.832 8.14848 18.3342 5.11736 23.6359C2.08632 28.9376 0.349116 34.888 0.047391 40.9967C-0.254334 47.1054 0.887935 53.1998 3.38112 58.7779C5.87436 64.3562 9.64783 69.2597 14.3927 73.0829C15.7769 74.1982 17.8032 73.9803 18.9186 72.596C20.0339 71.2118 19.816 69.1855 18.4317 68.0702C14.4826 64.8882 11.3377 60.8034 9.25829 56.1511C7.17885 51.4987 6.22521 46.4132 6.47705 41.3143C6.7289 36.2154 8.1789 31.2512 10.706 26.8311C13.233 22.411 16.764 18.6625 21.0061 15.8926C25.248 13.1228 30.0801 11.4103 35.104 10.8945C40.1279 10.3787 45.2019 11.074 49.9084 12.924C54.615 14.7741 58.8207 17.7265 62.1778 21.5403C65.5349 25.3542 67.9468 29.9201 69.2125 34.8624C69.5773 36.2865 70.8605 37.2826 72.3306 37.2826H77.8589C82.1496 37.2881 86.3113 38.7813 89.6454 41.5171C92.9805 44.2537 95.2852 48.0681 96.1661 52.323C97.0471 56.5781 96.4492 61.0085 94.4749 64.8691C92.5009 68.7291 89.2733 71.781 85.3391 73.5184C83.713 74.2365 82.9769 76.137 83.695 77.7631C84.4132 79.3893 86.3136 80.1254 87.9397 79.4072C93.2339 77.0693 97.5632 72.9688 100.206 67.8001C102.849 62.6319 103.648 56.7068 102.47 51.0178C101.292 45.3286 98.208 40.2158 93.729 36.5406C89.2494 32.8648 83.6443 30.8519 77.861 30.8451H74.7445C73.1139 25.8511 70.4852 21.2351 67.0099 17.2869C62.9795 12.7081 57.9256 9.15843 52.2634 6.93274Z" fill="#000001"/>
<g clip-path="url(#clip0_1_13)">
<mask id="mask0_1_13" style="mask-type:luminance" maskUnits="userSpaceOnUse" x="19" y="39" width="64" height="64">
<path d="M83 39H19V103H83V39Z" fill="white"/>
</mask>
<g mask="url(#mask0_1_13)">
<path fill-rule="evenodd" clip-rule="evenodd" d="M42 50L59 60.3349V81L42 70.6697V50Z" fill="black"/>
<path fill-rule="evenodd" clip-rule="evenodd" d="M61 60.3349V81L79 70.6697V50L61 60.3349Z" fill="black"/>
<path fill-rule="evenodd" clip-rule="evenodd" d="M22 39V59L40 69V49L22 39Z" fill="black"/>
<path fill-rule="evenodd" clip-rule="evenodd" d="M42 92.9985L59 103V83.1353V83.0015L42 73V92.9985Z" fill="black"/>
</g>
</g>
<defs>
<clipPath id="clip0_1_13">
<rect width="64" height="64" fill="white" transform="translate(19 39)"/>
</clipPath>
</defs>
</svg>
