<svg xmlns="http://www.w3.org/2000/svg" width="24" height="24" viewBox="0 0 24 24"><path fill="black" d="m10.184 23.25l.002-.01l-.033-.017l-8.388-4.611a1.684 1.684 0 0 1-.873-1.475V6.864c0-.614.335-1.18.873-1.476l9.424-5.18a1.687 1.687 0 0 1 1.622 0l8.31 4.568l.022.012l.005.001l-.005-.001l.006.002l-.004-.001l1.09.599c.538.296.873.862.873 1.476v10.273c0 .614-.335 1.179-.873 1.475l-8.388 4.611l-.03.016l.002.009l-.002-.009l-1.006.553a1.687 1.687 0 0 1-1.622 0l-1.003-.552zm.603-1.158l-.005-.001l.012.006a.388.388 0 0 0 .558-.338l.001-9.147a.39.39 0 0 0-.202-.34L2.763 7.661a.389.389 0 0 0-.576.341v9.135c0 .141.077.272.201.34l8.394 4.613zm.556-.327v-.001zm-2.539-4.802l-.005.003l-1.959-1.031l-.003-.004l.001-.01c.023-.305.153-.525.346-.632c.194-.107.45-.101.72.041c.272.143.508.397.671.691c.163.293.252.628.229.935zM5.71 15.177l-.005.002l-1.96-1.031l-.002-.004l.001-.01c.022-.304.152-.524.346-.632c.194-.107.449-.101.72.042c.271.143.508.396.671.69c.162.294.252.628.229.935zm14.981-8.999l-.003-.018a.382.382 0 0 0-.191-.25l-8.31-4.567a.388.388 0 0 0-.374 0L3.503 5.91a.388.388 0 0 0-.193.423l.009.007l-.009-.007c.022.1.083.194.183.253l8.32 4.572a.388.388 0 0 0 .374 0l8.321-4.573l.005-.008l-.005.008a.385.385 0 0 0 .183-.407m-17.37.16l-.002.002zm-.002.002l-.005-.006l-.004-.003zm-.467-1.56l-.003.002c.002.004.005.006.005.006zm.007.007l-.003.001h-.002z"/></svg>