<svg width="24" height="24" viewBox="0 0 24 24" fill="none" xmlns="http://www.w3.org/2000/svg">
<g clip-path="url(#clip0_876_66097)">
<path d="M5.33333 4.3999V9.19798L9.47487 11.5976V6.79957L5.33333 4.3999Z" fill="black"/>
<path d="M14.0714 9.47665L9.92863 7.07825V11.8763L14.0714 14.276V9.47665Z" fill="black"/>
<path d="M14.5251 14.276V9.47665L18.6667 7.07825V11.8763L14.5251 14.276Z" fill="black"/>
<path d="M14.0702 19.5999L9.92863 17.2002V12.4022L14.0702 14.8018V19.5999Z" fill="black"/>
<path fill-rule="evenodd" clip-rule="evenodd" d="M19.2 1H4.8C3.94342 1 3.36113 1.00078 2.91104 1.03755C2.47262 1.07337 2.24842 1.1383 2.09202 1.21799C1.71569 1.40973 1.40973 1.71569 1.21799 2.09202C1.1383 2.24842 1.07337 2.47262 1.03755 2.91104C1.00078 3.36113 1 3.94342 1 4.8V19.2C1 20.0566 1.00078 20.6389 1.03755 21.089C1.07337 21.5274 1.1383 21.7516 1.21799 21.908C1.40973 22.2843 1.71569 22.5903 2.09202 22.782C2.24842 22.8617 2.47262 22.9266 2.91104 22.9625C3.36113 22.9992 3.94342 23 4.8 23H19.2C20.0566 23 20.6389 22.9992 21.089 22.9625C21.5274 22.9266 21.7516 22.8617 21.908 22.782C22.2843 22.5903 22.5903 22.2843 22.782 21.908C22.8617 21.7516 22.9266 21.5274 22.9624 21.089C22.9992 20.6389 23 20.0566 23 19.2V4.8C23 3.94342 22.9992 3.36113 22.9624 2.91104C22.9266 2.47262 22.8617 2.24842 22.782 2.09202C22.5903 1.71569 22.2843 1.40973 21.908 1.21799C21.7516 1.1383 21.5274 1.07337 21.089 1.03755C20.6389 1.00078 20.0566 1 19.2 1ZM0.32698 1.63803C0 2.27976 0 3.11984 0 4.8V19.2C0 20.8802 0 21.7202 0.32698 22.362C0.614601 22.9265 1.07354 23.3854 1.63803 23.673C2.27976 24 3.11984 24 4.8 24H19.2C20.8802 24 21.7202 24 22.362 23.673C22.9265 23.3854 23.3854 22.9265 23.673 22.362C24 21.7202 24 20.8802 24 19.2V4.8C24 3.11984 24 2.27976 23.673 1.63803C23.3854 1.07354 22.9265 0.614601 22.362 0.32698C21.7202 0 20.8802 0 19.2 0H4.8C3.11984 0 2.27976 0 1.63803 0.32698C1.07354 0.614601 0.614601 1.07354 0.32698 1.63803Z" fill="black"/>
</g>
<defs>
<clipPath id="clip0_876_66097">
<rect width="24" height="24" fill="white"/>
</clipPath>
</defs>
</svg>
