<svg width="24" height="24" viewBox="0 0 24 24" fill="none" xmlns="http://www.w3.org/2000/svg">
<path fill-rule="evenodd" clip-rule="evenodd" d="M20 1H4C2.34315 1 1 2.34315 1 4V20C1 21.6569 2.34315 23 4 23H20C21.6569 23 23 21.6569 23 20V4C23 2.34315 21.6569 1 20 1ZM4 0C1.79086 0 0 1.79086 0 4V20C0 22.2091 1.79086 24 4 24H20C22.2091 24 24 22.2091 24 20V4C24 1.79086 22.2091 0 20 0H4Z" fill="white"/>
<path fill-rule="evenodd" clip-rule="evenodd" d="M9.92859 7.07837L14.0714 9.47678V14.2761L9.92859 11.8764V7.07837Z" fill="white"/>
<path fill-rule="evenodd" clip-rule="evenodd" d="M14.5251 9.47678V14.2761L18.6667 11.8764V7.07837L14.5251 9.47678Z" fill="white"/>
<path fill-rule="evenodd" clip-rule="evenodd" d="M5.33331 4.40002V9.1981L9.47485 11.5978V6.79969L5.33331 4.40002Z" fill="white"/>
<path fill-rule="evenodd" clip-rule="evenodd" d="M9.92859 17.2003L14.0701 19.6V14.8334V14.8019L9.92859 12.4022V17.2003Z" fill="white"/>
</svg>
