<svg width="24" height="24" viewBox="0 0 24 24" fill="none" xmlns="http://www.w3.org/2000/svg">
<path d="M24 20.75C24 22.5449 22.5449 24 20.75 24C20.7314 24 20.7129 23.9998 20.6944 23.9995L16.25 24.0001C15.0074 24.0001 14 22.9926 14 21.75C14 20.5074 15.0074 19.5 16.25 19.5C16.7562 19.5 17.2234 19.6672 17.5994 19.9494C17.956 18.5416 19.2314 17.5 20.75 17.5C22.5449 17.5 24 18.9551 24 20.75Z" fill="white"/>
<path d="M4 1H19C20.6569 1 22 2.34315 22 4V16.1662C22.3512 16.2617 22.6862 16.3966 23 16.5657V4C23 1.79086 21.2091 0 19 0H4C1.79086 0 0 1.79086 0 4V19C0 21.2091 1.79086 23 4 23H12.6C12.4883 22.684 12.4229 22.3485 12.4 22H4C2.34315 22 1 20.6569 1 19V4C1 2.34315 2.34315 1 4 1Z" fill="white"/>
<path fill-rule="evenodd" clip-rule="evenodd" d="M9.68756 6.69348L13.3125 8.79209V12.9915L9.68756 10.8918V6.69348Z" fill="white"/>
<path fill-rule="evenodd" clip-rule="evenodd" d="M13.7095 8.79209V12.9915L17.3333 10.8918V6.69348L13.7095 8.79209Z" fill="white"/>
<path fill-rule="evenodd" clip-rule="evenodd" d="M5.66669 4.34998V8.54829L9.29053 10.648V6.44969L5.66669 4.34998Z" fill="white"/>
<path fill-rule="evenodd" clip-rule="evenodd" d="M9.68756 15.5502L13.3114 17.65V13.4792V13.4516L9.68756 11.3519V15.5502Z" fill="white"/>
</svg>
