<svg width="24" height="24" viewBox="0 0 24 24" fill="none" xmlns="http://www.w3.org/2000/svg">
<g clip-path="url(#clip0_876_66101)">
<path fill-rule="evenodd" clip-rule="evenodd" d="M9.68755 6.6936L13.3125 8.79221V12.9916L9.68755 10.8919V6.6936Z" fill="black"/>
<path fill-rule="evenodd" clip-rule="evenodd" d="M13.7095 8.79221V12.9916L17.3333 10.8919V6.6936L13.7095 8.79221Z" fill="black"/>
<path fill-rule="evenodd" clip-rule="evenodd" d="M5.66667 4.3501V8.54841L9.29051 10.6481V6.44981L5.66667 4.3501Z" fill="black"/>
<path fill-rule="evenodd" clip-rule="evenodd" d="M9.68755 15.5504L13.3114 17.6501V13.4793V13.4518L9.68755 11.3521V15.5504Z" fill="black"/>
<path d="M24 20.75C24 22.5449 22.5449 24 20.75 24C20.7314 24 20.7129 23.9998 20.6944 23.9995L16.25 24.0001C15.0074 24.0001 14 22.9926 14 21.75C14 20.5074 15.0074 19.5 16.25 19.5C16.7562 19.5 17.2234 19.6672 17.5994 19.9494C17.956 18.5416 19.2314 17.5 20.75 17.5C22.5449 17.5 24 18.9551 24 20.75Z" fill="black"/>
<path d="M4.8 1H18.2C19.0566 1 19.6389 1.00078 20.089 1.03755C20.5274 1.07337 20.7516 1.1383 20.908 1.21799C21.2843 1.40973 21.5903 1.71569 21.782 2.09202C21.8617 2.24842 21.9266 2.47262 21.9624 2.91104C21.9992 3.36113 22 3.94342 22 4.8V16.1662C22.3512 16.2617 22.6862 16.3966 23 16.5657V4.8C23 3.11984 23 2.27976 22.673 1.63803C22.3854 1.07354 21.9265 0.614601 21.362 0.32698C20.7202 0 19.8802 0 18.2 0H4.8C3.11984 0 2.27976 0 1.63803 0.32698C1.07354 0.614601 0.614601 1.07354 0.32698 1.63803C0 2.27976 0 3.11984 0 4.8V18.2C0 19.8802 0 20.7202 0.32698 21.362C0.614601 21.9265 1.07354 22.3854 1.63803 22.673C2.27976 23 3.11984 23 4.8 23H12.7134C12.6017 22.684 12.5311 22.3485 12.5082 22H4.8C3.94342 22 3.36113 21.9992 2.91104 21.9624C2.47262 21.9266 2.24842 21.8617 2.09202 21.782C1.71569 21.5903 1.40973 21.2843 1.21799 20.908C1.1383 20.7516 1.07337 20.5274 1.03755 20.089C1.00078 19.6389 1 19.0566 1 18.2V4.8C1 3.94342 1.00078 3.36113 1.03755 2.91104C1.07337 2.47262 1.1383 2.24842 1.21799 2.09202C1.40973 1.71569 1.71569 1.40973 2.09202 1.21799C2.24842 1.1383 2.47262 1.07337 2.91104 1.03755C3.36113 1.00078 3.94342 1 4.8 1Z" fill="black"/>
</g>
<defs>
<clipPath id="clip0_876_66101">
<rect width="24" height="24" fill="white"/>
</clipPath>
</defs>
</svg>
